# xmcd
#
# Track frame offsets: 
#        150
#        24382
#        42545
#        62722
#        88435
#        109722
#        136570
#        176507
#        200935
#        224255
#        249172
#        273955
#
# Disc length: 4265 seconds
#
# Revision: 3
# Processed by: cddbd v1.5.2PL0 Copyright (c) Steve Scherf et al.
# Submitted via: ExactAudioCopy v0.95b4
#
DISCID=ac10a70c
DTITLE=Candlemass - Live
DYEAR=1990
DGENRE=Doom Metal
TTITLE0=The Well Of Souls
TTITLE1=Dark Are The Veils Of Death
TTITLE2=Bewitched
TTITLE3=Solitude
TTITLE4=Dark Reflections
TTITLE5=Under The Oak
TTITLE6=Demons Gate
TTITLE7=Through The Infinitive Halls Of Death
TTITLE8=Samarithan
TTITLE9=Mirror Mirror
TTITLE10=At The Gallows End
TTITLE11=Sorcerer's Pledge
EXTD=YEAR: 1990
EXTT0=
EXTT1=
EXTT2=
EXTT3=
EXTT4=
EXTT5=
EXTT6=
EXTT7=
EXTT8=
EXTT9=
EXTT10=
EXTT11=
PLAYORDER=
